<?xml version="1.0" standalone="no"?>
<!DOCTYPE svg PUBLIC "-//W3C//DTD SVG 20010904//EN"
 "http://www.w3.org/TR/2001/REC-SVG-20010904/DTD/svg10.dtd">
<svg version="1.0" xmlns="http://www.w3.org/2000/svg"
 width="512.000000pt" height="512.000000pt" viewBox="0 0 512.000000 512.000000"
 preserveAspectRatio="xMidYMid meet">

<g transform="translate(0.000000,512.000000) scale(0.100000,-0.100000)"
fill="#000000" stroke="none">
<path d="M795 5113 c-327 -46 -624 -282 -734 -583 -60 -166 -56 -9 -56 -1970
0 -1961 -4 -1804 56 -1970 85 -231 298 -444 529 -529 166 -60 9 -56 1970 -56
1961 0 1804 -4 1970 56 231 85 444 298 529 529 60 166 56 9 56 1970 0 1961 4
1804 -56 1970 -69 189 -227 371 -412 474 -68 38 -113 56 -222 89 l-70 21
-1765 2 c-971 1 -1778 -1 -1795 -3z m3548 -378 c189 -49 343 -203 392 -392 23
-86 23 -3480 0 -3566 -49 -189 -203 -343 -392 -392 -86 -23 -3480 -23 -3566 0
-189 49 -343 203 -392 392 -23 86 -23 3480 0 3566 48 186 202 342 388 392 81
21 3486 22 3570 0z"/>
<path d="M2510 3649 c-52 -16 -86 -44 -109 -92 -20 -42 -21 -58 -21 -430 l0
-386 -398 -3 -398 -3 -41 -27 c-102 -68 -102 -228 0 -296 l41 -27 397 -3 398
-3 3 -398 3 -397 27 -41 c68 -102 228 -102 296 0 l27 41 3 397 3 398 398 3
397 3 41 27 c102 68 102 228 0 296 l-41 27 -397 3 -398 3 -3 398 -3 397 -27
41 c-41 62 -126 93 -198 72z"/>
</g>
</svg>
